<?xml version="1.0" encoding="utf-8"?>
<svg version="1.1" xmlns:xlink="http://www.w3.org/1999/xlink" width="24px" height="23px" xmlns="http://www.w3.org/2000/svg">
  <g transform="matrix(1 0 0 1 -341 -889 )">
    <path d="M 23.831953125 20.6877333333333  L 23.831953125 21.8530666666667  C 23.831953125 22.3682666666667  23.423953125 22.7853333333333  22.919953125 22.7853333333333  C 22.415953125 22.7853333333333  22.007953125 22.3682666666667  22.007953125 21.8530666666667  L 22.007953125 21.3501333333333  C 22.007953125 19.0194666666667  17.363953125 15.7197333333333  12.035953125 15.7197333333333  C 7.799953125 15.7197333333333  1.991953125 18.492  1.991953125 21.252  L 1.991953125 21.8530666666667  C 1.991953125 22.3682666666667  1.583953125 22.7853333333333  1.079953125 22.7853333333333  C 0.575953125 22.7853333333333  0.167953125 22.3682666666667  0.167953125 21.8530666666667  L 0.167953125 20.6877333333333  C 0.167953125 19.2893333333333  2.195953125 15.7074666666667  7.727953125 14.3826666666667  C 5.735953125 12.9842666666667  4.415953125 10.6413333333333  4.415953125 7.97946666666667  C 4.415953125 3.6984  7.811953125 0.226933333333334  11.999953125 0.226933333333334  C 16.187953125 0.226933333333334  19.583953125 3.6984  19.583953125 7.97946666666667  C 19.583953125 10.5922666666667  18.311953125 12.8984  16.367953125 14.3090666666667  C 21.959953125 15.5848  23.831953125 19.3506666666667  23.831953125 20.6877333333333  Z M 12 13.8552  C 15.18 13.8552  17.76 11.2178666666667  17.76 7.9672  C 17.76 4.71653333333333  15.18 2.0792  12 2.0792  C 8.82 2.0792  6.24 4.71653333333333  6.24 7.9672  C 6.24 11.2178666666667  8.82 13.8552  12 13.8552  Z " fill-rule="nonzero" fill="#b5b5b6" stroke="none" transform="matrix(1 0 0 1 341 889 )" />
  </g>
</svg>