<?xml version="1.0" encoding="utf-8"?>
<svg version="1.1" xmlns:xlink="http://www.w3.org/1999/xlink" width="24px" height="26px" xmlns="http://www.w3.org/2000/svg">
  <g transform="matrix(1 0 0 1 -197 -889 )">
    <path d="M 10.8972972972973 10.324595649749  C 11.1567567567568 9.95724112288529  11.5219219219219 9.77356385945343  11.9927927927928 9.77356385945343  C 12.3003003003003 9.77356385945343  12.5837837837838 9.86056887897379  12.8432432432432 10.0345789180145  L 16.0432432432432 12.18070273285  C 16.6294294294294 12.567391708496  17.157957957958 13.0362520914668  17.6288288288288 13.5872838817624  L 19.7333333333333 16.0524261015059  C 20.1177177177177 16.4971184234988  20.2570570570571 17.0094813162298  20.1513513513514 17.5895147796988  L 19.1135135135135 23.5783602900167  C 19.0558558558559 23.8877114705336  18.9141141141141 24.1463097229968  18.6882882882883 24.3541550474066  C 18.4624624624625 24.5620003718163  18.1957957957958 24.6852574828035  17.8882882882883 24.7239263803681  L 10.2918918918919 25.5359732292248  L 5.21801801801802 26  L 5.08828828828829 26  C 4.71351351351351 26  4.38918918918919 25.8646588585239  4.11531531531532 25.5939765755717  C 3.84144144144144 25.3232942926194  3.7045045045045 24.9946086633203  3.7045045045045 24.6079196876743  C 3.7045045045045 24.2502323852017  3.83423423423423 23.9408812046849  4.09369369369369 23.6798661461238  C 4.35315315315315 23.4188510875627  4.66546546546547 23.2641754973043  5.03063063063063 23.2158393753486  L 8.77837837837838 22.7518126045733  L 2.32072072072072 22.7518126045733  C 1.92672672672673 22.7518126045733  1.59279279279279 22.6068042387061  1.31891891891892 22.3167875069716  C 1.04504504504505 22.026770775237  0.917717717717718 21.6835843093512  0.936936936936937 21.287228109314  C 0.956156156156156 20.9102063580591  1.10990990990991 20.5960215653467  1.3981981981982 20.3446737311768  C 1.68648648648649 20.0933258970069  2.01801801801802 19.9676519799219  2.39279279279279 19.9676519799219  L 8.76396396396396 19.9531511433352  L 1.25405405405405 19.0250976017847  C 0.86006006006006 18.976761479829  0.542942942942943 18.7979178285927  0.302702702702703 18.4885666480758  C 0.0624624624624624 18.179215467559  -0.0288288288288288 17.826361777282  0.0288288288288288 17.4300055772448  C 0.0864864864864865 17.0916527235546  0.252252252252252 16.813720022309  0.526126126126126 16.5962074735081  C 0.8 16.3786949247072  1.11471471471471 16.2699386503067  1.47027027027027 16.2699386503067  L 1.61441441441441 16.2699386503067  L 8.54774774774775 17.1399888455103  L 3.48828828828829 15.7769102063581  C 3.12312312312312 15.6802379624466  2.82522522522523 15.4796430563302  2.59459459459459 15.1751254880089  C 2.36396396396396 14.8706079196877  2.27747747747748 14.5395054842908  2.33513513513514 14.1818181818182  C 2.39279279279279 13.8337981037368  2.55135135135135 13.5510317902956  2.81081081081081 13.3335192414947  C 3.07027027027027 13.1160066926938  3.36816816816817 13.0072504182934  3.7045045045045 13.0072504182934  C 3.76216216216216 13.0072504182934  3.85825825825826 13.0169176426845  3.99279279279279 13.0362520914668  L 10.4504504504505 14.4283324037925  L 13.5783783783784 14.9648633575014  C 13.587987987988 14.9648633575014  13.6024024024024 14.9672801635992  13.6216216216216 14.9721137757948  C 13.6408408408408 14.9769473879903  13.6552552552553 14.9793641940881  13.6648648648649 14.9793641940881  C 13.8858858858859 14.9793641940881  14.0324324324324 14.8681911135899  14.1045045045045 14.6458449525934  C 14.1765765765766 14.423498791597  14.1165165165165 14.2494887525562  13.9243243243243 14.1238148354713  L 11.2432432432432 12.3112102621305  C 10.9069069069069 12.088864101134  10.7051051051051 11.781929726715  10.6378378378378 11.3904071388734  C 10.5705705705706 10.9988845510318  10.6570570570571 10.643614054657  10.8972972972973 10.324595649749  Z M 10.190990990991 11.4701617401004  C 10.2774774774775 11.9921918572225  10.5417417417417 12.4030488938464  10.9837837837838 12.7027328499721  L 13.6648648648649 14.5153374233129  L 10.5225225225225 13.978806469604  L 10.4504504504505 13.9498047964306  L 9.93153153153153 13.398773006135  L 6.5009009009009 9.59955382041272  C 6.49129129129129 9.58988659602156  6.47927927927928 9.57296895333705  6.46486486486487 9.54880089235918  C 6.45045045045045 9.52463283138129  6.43843843843844 9.50771518869678  6.42882882882883 9.49804796430563  C 6.1981981981982 9.19836400817996  6.10930930930931 8.86001115448968  6.16216216216216 8.4829894032348  C 6.21501501501502 8.10596765197992  6.3951951951952 7.79661647146309  6.7027027027027 7.55493586168433  C 7.0006006006006 7.33258970068786  7.32732732732733 7.24800148726529  7.68288288288288 7.30117122141662  C 8.03843843843844 7.35434095556795  8.34594594594595 7.51626696411972  8.60540540540541 7.78694924707195  L 10.6522522522523 9.91857222532069  C 10.633033033033 9.92823944971184  10.609009009009 9.94515709239635  10.5801801801802 9.96932515337423  C 10.5513513513514 9.99349321435211  10.5321321321321 10.0152444692322  10.5225225225225 10.0345789180145  C 10.215015015015 10.4696040156163  10.1045045045045 10.9481316229782  10.190990990991 11.4701617401004  Z M 23.3369369369369 5.14054656999442  C 23.606006006006 5.41606246514222  23.7501501501502 5.74233128834356  23.7693693693694 6.11935303959844  L 23.9855855855856 9.9765755716676  C 24.024024024024 10.6822829522216  23.9711711711712 11.3928239449712  23.827027027027 12.1081985499163  L 23.1351351351351 15.2838817624094  C 23.0198198198198 15.8542480014873  22.6978978978979 16.2747722625023  22.1693693693694 16.5454545454545  L 20.6414414414414 17.3284997211378  C 20.6606606606607 16.7291318088864  20.4732732732733 16.2022680795687  20.0792792792793 15.7479085331846  L 17.9747747747748 13.2827663134412  C 17.4654654654655 12.693065625581  16.9033033033033 12.1952035694367  16.2882882882883 11.7891801450084  L 13.0882882882883 9.64305633017289  C 12.7615615615616 9.42071016917642  12.3963963963964 9.30953708867819  11.9927927927928 9.30953708867819  C 11.5027027027027 9.30953708867819  11.0798798798799 9.48838073991448  10.7243243243243 9.84606804238706  L 7.33693693693694 5.3218070273285  C 7.0966966966967 5.00278862242052  7.01021021021021 4.64751812604573  7.07747747747748 4.25599553820413  C 7.14474474474475 3.86447295036252  7.34174174174174 3.55753857594348  7.66846846846847 3.33519241494702  C 7.98558558558559 3.1225134783417  8.32912912912913 3.05484290760364  8.6990990990991 3.13218070273285  C 9.06906906906907 3.20951849786206  9.36936936936937 3.40286298568507  9.6 3.7122141662019  L 13.4342342342342 8.8165086447295  L 9.65765765765766 2.2186279977691  C 9.45585585585586 1.88027514407882  9.40540540540541 1.51775422941067  9.50630630630631 1.13106525376464  C 9.60720720720721 0.744376278118609  9.83543543543544 0.459193158579658  10.190990990991 0.275515895147798  C 10.5273273273273 0.101505856107083  10.8756756756757 0.0725041829336304  11.236036036036 0.188510875627439  C 11.5963963963964 0.30451756832125  11.8726726726727 0.526863729317715  12.0648648648649 0.855549358616844  L 15.5387387387387 6.94590072504183  L 13.5783783783784 2.05911879531511  C 13.4342342342342 1.72076594162484  13.4126126126126 1.36307863915226  13.5135135135135 0.986056887897379  C 13.6144144144144 0.609035136642498  13.8282282282282 0.338352853690276  14.154954954955 0.174010039040713  C 14.5105105105105 -0.00966722439115264  14.8756756756757 -0.0386688975646048  15.2504504504505 0.0870050195203564  C 15.6252252252252 0.212678936605315  15.8942942942943 0.459193158579658  16.0576576576577 0.826547685443392  L 18.8396396396396 6.84439486893475  L 20.2954954954955 9.68655883993307  C 20.3723723723724 9.83156720580034  20.4828828828829 9.9161554192229  20.627027027027 9.94032348020078  C 20.7711711711712 9.96449154117866  20.9009009009009 9.92823944971184  21.0162162162162 9.83156720580034  C 21.1315315315315 9.73489496188883  21.1843843843844 9.60922104480387  21.1747747747748 9.45454545454546  L 21.0018018018018 6.20635805911879  C 20.9825825825826 5.81000185908161  21.1075075075075 5.46681539319576  21.3765765765766 5.17679866146124  C 21.6456456456456 4.88678192972672  21.9771771771772 4.73693995166388  22.3711711711712 4.72727272727273  C 22.7459459459459 4.72727272727273  23.0678678678679 4.86503067484663  23.3369369369369 5.14054656999442  Z " fill-rule="nonzero" fill="#000000" stroke="none" transform="matrix(1 0 0 1 197 889 )" />
  </g>
</svg>