<?xml version="1.0" encoding="utf-8"?>
<svg version="1.1" xmlns:xlink="http://www.w3.org/1999/xlink" width="24px" height="24px" xmlns="http://www.w3.org/2000/svg">
  <g transform="matrix(1 0 0 1 -56 -889 )">
    <path d="M 18.1644230769231 5.14615384615385  C 18.6 5.19519230769231  19.2173076923077 5.31346153846154  20.0769230769231 5.57019230769231  C 20.7461538461538 5.775  21.4442307692308 5.87884615384615  22.1451923076923 5.87884615384615  C 22.7653846153846 5.87884615384615  23.3798076923077 5.79519230769231  23.9769230769231 5.63365384615385  L 23.9769230769231 1.43076923076923  C 23.0682692307692 1.91538461538462  22.0038461538462 2.01634615384615  21.0201923076923 1.71346153846154  C 19.8663461538462 1.36730769230769  18.9288461538462 1.19423076923077  18.1644230769231 1.13942307692308  L 18.1644230769231 0.773076923076923  C 18.1644230769231 0.392307692307692  17.8557692307692 0.0807692307692307  17.4721153846154 0.0807692307692307  C 17.0913461538462 0.0807692307692307  16.7798076923077 0.389423076923077  16.7798076923077 0.773076923076923  L 16.7798076923077 6.22788461538462  L 13.0644230769231 2.50961538461538  C 12.7932692307692 2.23846153846154  12.4269230769231 2.08557692307692  12.0432692307692 2.08557692307692  C 11.6596153846154 2.08557692307692  11.2932692307692 2.23846153846154  11.0221153846154 2.50961538461538  L 0.305769230769231 13.2317307692308  C 0.0432692307692308 13.4971153846154  0.0432692307692308 13.9240384615385  0.305769230769231 14.1894230769231  L 0.504807692307692 14.3884615384615  C 0.631730769230769 14.5153846153846  0.804807692307692 14.5875  0.983653846153846 14.5875  C 1.1625 14.5875  1.33557692307692 14.5153846153846  1.4625 14.3884615384615  L 3.13846153846154 12.7125  L 3.13846153846154 21.8769230769231  L 2.74038461538462 21.8769230769231  C 2.22980769230769 21.8769230769231  1.81730769230769 22.2923076923077  1.81730769230769 22.8028846153846  C 1.81730769230769 23.3134615384615  2.22980769230769 23.7288461538462  2.74038461538462 23.7288461538462  L 21.3519230769231 23.7288461538462  C 21.8625 23.7288461538462  22.2778846153846 23.3134615384615  22.2778846153846 22.8028846153846  C 22.2778846153846 22.2923076923077  21.8625 21.8769230769231  21.3519230769231 21.8769230769231  L 20.9567307692308 21.8769230769231  L 20.9567307692308 12.7125  L 22.6269230769231 14.3855769230769  C 22.7538461538462 14.5125  22.9269230769231 14.5846153846154  23.1057692307692 14.5846153846154  C 23.2846153846154 14.5846153846154  23.4576923076923 14.5125  23.5846153846154 14.3855769230769  L 23.7836538461538 14.1865384615385  C 23.9105769230769 14.0596153846154  23.9826923076923 13.8865384615385  23.9826923076923 13.7076923076923  C 23.9826923076923 13.5288461538462  23.9105769230769 13.3557692307692  23.7836538461538 13.2288461538462  L 18.1644230769231 7.6125  L 18.1644230769231 5.14615384615385  Z M 14.5240384615385 16.6153846153846  L 14.5240384615385 21.8740384615385  L 9.5625 21.8740384615385  L 9.5625 16.6153846153846  L 14.5240384615385 16.6153846153846  Z " fill-rule="nonzero" fill="#3388ff" stroke="none" transform="matrix(1 0 0 1 56 889 )" />
  </g>
</svg>