<?xml version="1.0" encoding="utf-8"?>
<svg version="1.1" xmlns:xlink="http://www.w3.org/1999/xlink" width="31px" height="27px" xmlns="http://www.w3.org/2000/svg">
  <g transform="matrix(1 0 0 1 -354 -71 )">
    <path d="M 10.4227120535714 9.6591796875  C 10.8551897321429 10.0986328125  11.0714285714286 10.62890625  11.0714285714286 11.25  C 11.0714285714286 11.87109375  10.8551897321429 12.4013671875  10.4227120535714 12.8408203125  C 9.990234375 13.2802734375  9.46837797619048 13.5  8.85714285714286 13.5  C 8.24590773809524 13.5  7.72405133928572 13.2802734375  7.29157366071429 12.8408203125  C 6.85909598214286 12.4013671875  6.64285714285714 11.87109375  6.64285714285714 11.25  C 6.64285714285714 10.62890625  6.85909598214286 10.0986328125  7.29157366071429 9.6591796875  C 7.72405133928572 9.2197265625  8.24590773809524 9  8.85714285714286 9  C 9.46837797619048 9  9.990234375 9.2197265625  10.4227120535714 9.6591796875  Z M 17.0655691964286 9.6591796875  C 17.498046875 10.0986328125  17.7142857142857 10.62890625  17.7142857142857 11.25  C 17.7142857142857 11.87109375  17.498046875 12.4013671875  17.0655691964286 12.8408203125  C 16.6330915178571 13.2802734375  16.1112351190476 13.5  15.5 13.5  C 14.8887648809524 13.5  14.3669084821429 13.2802734375  13.9344308035714 12.8408203125  C 13.501953125 12.4013671875  13.2857142857143 11.87109375  13.2857142857143 11.25  C 13.2857142857143 10.62890625  13.501953125 10.0986328125  13.9344308035714 9.6591796875  C 14.3669084821429 9.2197265625  14.8887648809524 9  15.5 9  C 16.1112351190476 9  16.6330915178571 9.2197265625  17.0655691964286 9.6591796875  Z M 23.7084263392857 9.6591796875  C 24.1409040178571 10.0986328125  24.3571428571429 10.62890625  24.3571428571429 11.25  C 24.3571428571429 11.87109375  24.1409040178571 12.4013671875  23.7084263392857 12.8408203125  C 23.2759486607143 13.2802734375  22.7540922619048 13.5  22.1428571428571 13.5  C 21.5316220238095 13.5  21.009765625 13.2802734375  20.5772879464286 12.8408203125  C 20.1448102678571 12.4013671875  19.9285714285714 11.87109375  19.9285714285714 11.25  C 19.9285714285714 10.62890625  20.1448102678571 10.0986328125  20.5772879464286 9.6591796875  C 21.009765625 9.2197265625  21.5316220238095 9  22.1428571428571 9  C 22.7540922619048 9  23.2759486607143 9.2197265625  23.7084263392857 9.6591796875  Z M 22.099609375 3.4716796875  C 20.0525483630952 2.6572265625  17.8526785714286 2.25  15.5 2.25  C 13.1473214285714 2.25  10.9474516369048 2.6572265625  8.900390625 3.4716796875  C 6.85332961309524 4.2861328125  5.22721354166667 5.384765625  4.02204241071429 6.767578125  C 2.8168712797619 8.150390625  2.21428571428571 9.64453125  2.21428571428571 11.25  C 2.21428571428571 12.5625  2.62658110119048 13.8134765625  3.451171875 15.0029296875  C 4.27576264880952 16.1923828125  5.43768601190476 17.220703125  6.93694196428571 18.087890625  L 8.44196428571428 18.966796875  L 7.97488839285714 20.654296875  C 7.69810267857143 21.720703125  7.2944568452381 22.728515625  6.76395089285714 23.677734375  C 8.51692708333333 22.939453125  10.1026785714286 21.9375  11.5212053571429 20.671875  L 12.2650669642857 20.00390625  L 13.2511160714286 20.109375  C 14.046875 20.203125  14.7965029761905 20.25  15.5 20.25  C 17.8526785714286 20.25  20.0525483630952 19.8427734375  22.099609375 19.0283203125  C 24.1466703869048 18.2138671875  25.7727864583333 17.115234375  26.9779575892857 15.732421875  C 28.1831287202381 14.349609375  28.7857142857143 12.85546875  28.7857142857143 11.25  C 28.7857142857143 9.64453125  28.1831287202381 8.150390625  26.9779575892857 6.767578125  C 25.7727864583333 5.384765625  24.1466703869048 4.2861328125  22.099609375 3.4716796875  Z M 29.7717633928571 6.8818359375  C 30.5905877976191 8.2705078125  31 9.7265625  31 11.25  C 31 13.2890625  30.3080357142857 15.1728515625  28.9241071428571 16.9013671875  C 27.5401785714286 18.6298828125  25.6603422619048 19.9951171875  23.2845982142857 20.9970703125  C 20.9088541666667 21.9990234375  18.3139880952381 22.5  15.5 22.5  C 14.6927083333333 22.5  13.8565848214286 22.453125  12.9916294642857 22.359375  C 10.7081473214286 24.41015625  8.05561755952381 25.828125  5.03404017857143 26.61328125  C 4.46893601190476 26.77734375  3.81156994047619 26.90625  3.06194196428571 27  L 2.97544642857143 27  C 2.80245535714286 27  2.64676339285714 26.9384765625  2.50837053571429 26.8154296875  C 2.36997767857143 26.6923828125  2.27771577380952 26.53125  2.23158482142857 26.33203125  L 2.23158482142857 26.314453125  C 2.19698660714286 26.267578125  2.19410342261905 26.197265625  2.22293526785714 26.103515625  C 2.25176711309524 26.009765625  2.26329985119048 25.951171875  2.25753348214286 25.927734375  C 2.25176711309524 25.904296875  2.27771577380952 25.8486328125  2.33537946428571 25.7607421875  L 2.43917410714286 25.6025390625  C 2.43917410714286 25.6025390625  2.47953869047619 25.552734375  2.56026785714286 25.453125  C 2.64099702380952 25.353515625  2.68712797619048 25.30078125  2.69866071428571 25.294921875  C 2.77938988095238 25.201171875  2.95814732142857 24.9990234375  3.23493303571429 24.6884765625  C 3.51171875 24.3779296875  3.71065848214286 24.1552734375  3.83175223214286 24.0205078125  C 3.95284598214286 23.8857421875  4.13160342261905 23.654296875  4.36802455357143 23.326171875  C 4.60444568452381 22.998046875  4.79185267857143 22.69921875  4.93024553571429 22.4296875  C 5.06863839285714 22.16015625  5.22433035714286 21.814453125  5.39732142857143 21.392578125  C 5.5703125 20.970703125  5.7202380952381 20.525390625  5.84709821428571 20.056640625  C 4.03645833333333 19.013671875  2.60928199404762 17.724609375  1.56556919642857 16.189453125  C 0.521856398809524 14.654296875  0 13.0078125  0 11.25  C 0 9.7265625  0.409412202380952 8.2705078125  1.22823660714286 6.8818359375  C 2.04706101190476 5.4931640625  3.1484375 4.294921875  4.53236607142857 3.287109375  C 5.91629464285714 2.279296875  7.56547619047619 1.4794921875  9.47991071428572 0.887695312499999  C 11.3943452380952 0.295898437499999  13.4010416666667 0  15.5 0  C 17.5989583333333 0  19.6056547619048 0.295898437499999  21.5200892857143 0.887695312499999  C 23.4345238095238 1.4794921875  25.0837053571429 2.279296875  26.4676339285714 3.287109375  C 27.8515625 4.294921875  28.9529389880952 5.4931640625  29.7717633928571 6.8818359375  Z " fill-rule="nonzero" fill="#cccccc" stroke="none" transform="matrix(1 0 0 1 354 71 )" />
  </g>
</svg>