<?xml version="1.0" encoding="utf-8"?>
<svg version="1.1" xmlns:xlink="http://www.w3.org/1999/xlink" width="18px" height="16px" xmlns="http://www.w3.org/2000/svg">
  <g transform="matrix(1 0 0 1 -52 -426 )">
    <path d="M 14.8258928571429 8.58333333333333  C 16.0848214285714 7.27777777777778  16.7142857142857 6.04166666666667  16.7142857142857 4.875  C 16.7142857142857 4.3125  16.6422991071429 3.81597222222222  16.4983258928571 3.38541666666667  C 16.3543526785714 2.95486111111111  16.1702008928571 2.61284722222222  15.9458705357143 2.359375  C 15.7215401785714 2.10590277777778  15.4486607142857 1.89930555555556  15.1272321428571 1.73958333333333  C 14.8058035714286 1.57986111111111  14.4910714285714 1.47222222222222  14.1830357142857 1.41666666666667  C 13.875 1.36111111111111  13.546875 1.33333333333333  13.1986607142857 1.33333333333333  C 12.8504464285714 1.33333333333333  12.4754464285714 1.421875  12.0736607142857 1.59895833333333  C 11.671875 1.77604166666667  11.3018973214286 1.99826388888889  10.9637276785714 2.265625  C 10.6255580357143 2.53298611111111  10.3359375 2.78298611111111  10.0948660714286 3.015625  C 9.85379464285714 3.24826388888889  9.65290178571429 3.46180555555556  9.4921875 3.65625  C 9.37165178571429 3.80902777777778  9.20758928571429 3.88541666666667  9 3.88541666666667  C 8.79241071428572 3.88541666666667  8.62834821428571 3.80902777777778  8.5078125 3.65625  C 8.34709821428571 3.46180555555556  8.14620535714286 3.24826388888889  7.90513392857143 3.015625  C 7.6640625 2.78298611111111  7.37444196428572 2.53298611111111  7.03627232142857 2.265625  C 6.69810267857143 1.99826388888889  6.328125 1.77604166666667  5.92633928571429 1.59895833333333  C 5.52455357142857 1.421875  5.14955357142857 1.33333333333333  4.80133928571429 1.33333333333333  C 4.453125 1.33333333333333  4.125 1.36111111111111  3.81696428571429 1.41666666666667  C 3.50892857142857 1.47222222222222  3.19419642857143 1.57986111111111  2.87276785714286 1.73958333333333  C 2.55133928571429 1.89930555555556  2.27845982142857 2.10590277777778  2.05412946428571 2.359375  C 1.82979910714286 2.61284722222222  1.64564732142857 2.95486111111111  1.50167410714286 3.38541666666667  C 1.35770089285714 3.81597222222222  1.28571428571429 4.3125  1.28571428571429 4.875  C 1.28571428571429 6.04166666666667  1.91183035714286 7.27430555555556  3.1640625 8.57291666666667  L 9 14.40625  L 14.8258928571429 8.58333333333333  Z M 16.7243303571429 1.29166666666667  C 17.5747767857143 2.15277777777778  18 3.34722222222222  18 4.875  C 18 6.40972222222222  17.2332589285714 7.97222222222222  15.6997767857143 9.5625  L 9.44196428571428 15.8125  C 9.32142857142857 15.9375  9.17410714285714 16  9 16  C 8.82589285714286 16  8.67857142857143 15.9375  8.55803571428571 15.8125  L 2.29017857142857 9.54166666666667  C 2.22321428571429 9.48611111111111  2.13113839285714 9.39583333333333  2.01395089285714 9.27083333333333  C 1.89676339285714 9.14583333333333  1.7109375 8.91840277777778  1.45647321428571 8.58854166666667  C 1.20200892857143 8.25868055555555  0.974330357142857 7.92013888888889  0.7734375 7.57291666666667  C 0.572544642857143 7.22569444444444  0.393415178571429 6.80555555555556  0.236049107142857 6.3125  C 0.0786830357142857 5.81944444444444  0 5.34027777777778  0 4.875  C 0 3.34722222222222  0.425223214285714 2.15277777777778  1.27566964285714 1.29166666666667  C 2.12611607142857 0.430555555555555  3.30133928571429 0  4.80133928571429 0  C 5.21651785714286 0  5.64006696428571 0.0746527777777768  6.07198660714286 0.223958333333334  C 6.50390625 0.373263888888888  6.90569196428571 0.574652777777777  7.27734375 0.828125  C 7.64899553571429 1.08159722222222  7.96875 1.31944444444444  8.23660714285714 1.54166666666667  C 8.50446428571429 1.76388888888889  8.75892857142857 2  9 2.25  C 9.24107142857143 2  9.49553571428572 1.76388888888889  9.76339285714286 1.54166666666667  C 10.03125 1.31944444444444  10.3510044642857 1.08159722222222  10.72265625 0.828125  C 11.0943080357143 0.574652777777777  11.49609375 0.373263888888888  11.9280133928571 0.223958333333334  C 12.3599330357143 0.0746527777777768  12.7834821428571 0  13.1986607142857 0  C 14.6986607142857 0  15.8738839285714 0.430555555555555  16.7243303571429 1.29166666666667  Z " fill-rule="nonzero" fill="#000000" stroke="none" transform="matrix(1 0 0 1 52 426 )" />
  </g>
</svg>