<?xml version="1.0" encoding="utf-8"?>
<svg version="1.1" xmlns:xlink="http://www.w3.org/1999/xlink" width="21px" height="21px" xmlns="http://www.w3.org/2000/svg">
  <g transform="matrix(1 0 0 1 -56 -900 )">
    <path d="M 66.5 900  C 72.38 900  77 904.62  77 910.5  C 77 916.38  72.38 921  66.5 921  C 60.62 921  56 916.38  56 910.5  C 56 904.62  60.62 900  66.5 900  Z " fill-rule="nonzero" fill="#ffffff" stroke="none" />
    <path d="M 66.5 900.5  C 72.1 900.5  76.5 904.9  76.5 910.5  C 76.5 916.1  72.1 920.5  66.5 920.5  C 60.9 920.5  56.5 916.1  56.5 910.5  C 56.5 904.9  60.9 900.5  66.5 900.5  Z " stroke-width="1" stroke="#797979" fill="none" />
  </g>
</svg>