<?xml version="1.0" encoding="utf-8"?>
<svg version="1.1" xmlns:xlink="http://www.w3.org/1999/xlink" width="21px" height="21px" xmlns="http://www.w3.org/2000/svg">
  <defs>
    <mask fill="white" id="clip5">
      <path d="M 0 10.5  C 0 4.62  4.62 0  10.5 0  C 16.38 0  21 4.62  21 10.5  C 21 12.2943089439427  20.5697887457551 13.9712875458187  19.8048432813316 15.4354587615614  C 18.0630413174518 18.7694170862365  14.5856910560573 21  10.5 21  C 4.62 21  0 16.38  0 10.5  Z " fill-rule="evenodd" />
    </mask>
  </defs>
  <g transform="matrix(1 0 0 1 -50 -386 )">
    <path d="M 0 10.5  C 0 4.62  4.62 0  10.5 0  C 16.38 0  21 4.62  21 10.5  C 21 12.2943089439427  20.5697887457551 13.9712875458187  19.8048432813316 15.4354587615614  C 18.0630413174518 18.7694170862365  14.5856910560573 21  10.5 21  C 4.62 21  0 16.38  0 10.5  Z " fill-rule="nonzero" fill="#f84444" stroke="none" fill-opacity="0" transform="matrix(1 0 0 1 50 386 )" />
    <path d="M 0 10.5  C 0 4.62  4.62 0  10.5 0  C 16.38 0  21 4.62  21 10.5  C 21 12.2943089439427  20.5697887457551 13.9712875458187  19.8048432813316 15.4354587615614  C 18.0630413174518 18.7694170862365  14.5856910560573 21  10.5 21  C 4.62 21  0 16.38  0 10.5  Z " stroke-width="2" stroke="#797979" fill="none" transform="matrix(1 0 0 1 50 386 )" mask="url(#clip5)" />
  </g>
</svg>