<?xml version="1.0" encoding="utf-8"?>
<svg version="1.1" xmlns:xlink="http://www.w3.org/1999/xlink" width="31px" height="25px" xmlns="http://www.w3.org/2000/svg">
  <g transform="matrix(1 0 0 1 -68 -171 )">
    <path d="M 9.65162037037037 22.0525568181818  C 10.1060956790123 21.6027462121212  10.3333333333333 21.0700757575758  10.3333333333333 20.4545454545455  C 10.3333333333333 19.8390151515151  10.1060956790123 19.3063446969697  9.65162037037037 18.8565340909091  C 9.1971450617284 18.4067234848485  8.65895061728395 18.1818181818182  8.03703703703704 18.1818181818182  C 7.41512345679012 18.1818181818182  6.87692901234568 18.4067234848485  6.4224537037037 18.8565340909091  C 5.96797839506173 19.3063446969697  5.74074074074074 19.8390151515151  5.74074074074074 20.4545454545455  C 5.74074074074074 21.0700757575758  5.96797839506173 21.6027462121212  6.4224537037037 22.0525568181818  C 6.87692901234568 22.5023674242424  7.41512345679012 22.7272727272727  8.03703703703704 22.7272727272727  C 8.65895061728395 22.7272727272727  9.1971450617284 22.5023674242424  9.65162037037037 22.0525568181818  Z M 3.44444444444444 10.8309659090909  L 3.44444444444444 11.3636363636364  L 10.3333333333333 11.3636363636364  L 10.3333333333333 6.81818181818182  L 7.49884259259259 6.81818181818182  C 7.34336419753086 6.81818181818182  7.21180555555556 6.87144886363637  7.10416666666667 6.97798295454546  L 3.60590277777778 10.4403409090909  C 3.49826388888889 10.546875  3.44444444444444 10.6770833333333  3.44444444444444 10.8309659090909  Z M 25.7256944444444 22.0525568181818  C 26.1801697530864 21.6027462121212  26.4074074074074 21.0700757575758  26.4074074074074 20.4545454545455  C 26.4074074074074 19.8390151515151  26.1801697530864 19.3063446969697  25.7256944444444 18.8565340909091  C 25.2712191358025 18.4067234848485  24.733024691358 18.1818181818182  24.1111111111111 18.1818181818182  C 23.4891975308642 18.1818181818182  22.9510030864198 18.4067234848485  22.4965277777778 18.8565340909091  C 22.0420524691358 19.3063446969697  21.8148148148148 19.8390151515151  21.8148148148148 20.4545454545455  C 21.8148148148148 21.0700757575758  22.0420524691358 21.6027462121212  22.4965277777778 22.0525568181818  C 22.9510030864198 22.5023674242424  23.4891975308642 22.7272727272727  24.1111111111111 22.7272727272727  C 24.733024691358 22.7272727272727  25.2712191358025 22.5023674242424  25.7256944444444 22.0525568181818  Z M 30.6591435185185 0.337357954545456  C 30.8863811728395 0.562263257575754  31 0.828598484848483  31 1.13636363636364  L 31 19.3181818181818  C 31 19.4957386363636  30.9760802469136 19.6525804924242  30.9282407407407 19.7887073863636  C 30.8804012345679 19.924834280303  30.7996720679012 20.0343276515151  30.6860532407407 20.1171875  C 30.5724344135802 20.2000473484849  30.4737654320988 20.2681107954545  30.3900462962963 20.3213778409091  C 30.3063271604938 20.3746448863636  30.1657986111111 20.41015625  29.9684606481481 20.4279119318182  C 29.7711226851852 20.4456676136364  29.6365740740741 20.4575047348485  29.5648148148148 20.4634232954545  C 29.4930555555556 20.4693418560606  29.3405671296296 20.4693418560606  29.107349537037 20.4634232954545  C 28.8741319444444 20.4575047348485  28.7395833333333 20.4545454545455  28.7037037037037 20.4545454545455  C 28.7037037037037 21.7092803030303  28.2552083333333 22.7805397727273  27.3582175925926 23.6683238636364  C 26.4612268518519 24.5561079545455  25.3788580246914 25  24.1111111111111 25  C 22.8433641975309 25  21.7609953703704 24.5561079545455  20.8640046296296 23.6683238636364  C 19.9670138888889 22.7805397727273  19.5185185185185 21.7092803030303  19.5185185185185 20.4545454545455  L 12.6296296296296 20.4545454545455  C 12.6296296296296 21.7092803030303  12.1811342592593 22.7805397727273  11.2841435185185 23.6683238636364  C 10.3871527777778 24.5561079545455  9.30478395061728 25  8.03703703703704 25  C 6.76929012345679 25  5.6869212962963 24.5561079545455  4.78993055555556 23.6683238636364  C 3.89293981481481 22.7805397727273  3.44444444444444 21.7092803030303  3.44444444444444 20.4545454545455  L 2.2962962962963 20.4545454545455  C 2.26041666666667 20.4545454545455  2.12586805555556 20.4575047348485  1.89265046296296 20.4634232954545  C 1.65943287037037 20.4693418560606  1.50694444444444 20.4693418560606  1.43518518518519 20.4634232954545  C 1.36342592592593 20.4575047348485  1.22887731481481 20.4456676136364  1.03153935185185 20.4279119318182  C 0.834201388888889 20.41015625  0.693672839506173 20.3746448863636  0.609953703703704 20.3213778409091  C 0.526234567901235 20.2681107954545  0.427565586419753 20.2000473484849  0.313946759259259 20.1171875  C 0.200327932098766 20.0343276515151  0.119598765432099 19.924834280303  0.0717592592592593 19.7887073863636  C 0.0239197530864199 19.6525804924242  0 19.4957386363636  0 19.3181818181818  C 0 19.0104166666667  0.113618827160494 18.7440814393939  0.340856481481482 18.5191761363636  C 0.568094135802469 18.2942708333333  0.837191358024692 18.1818181818182  1.14814814814815 18.1818181818182  L 1.14814814814815 12.5  C 1.14814814814815 12.405303030303  1.14515817901235 12.1981534090909  1.13917824074074 11.8785511363636  C 1.13319830246914 11.5589488636364  1.13319830246914 11.3340435606061  1.13917824074074 11.2038352272727  C 1.14515817901235 11.0736268939394  1.16010802469136 10.8694365530303  1.18402777777778 10.5912642045455  C 1.2079475308642 10.3130918560606  1.24681712962963 10.0941051136364  1.30063657407407 9.93430397727273  C 1.35445601851852 9.77450284090909  1.43817515432099 9.59398674242424  1.55179398148148 9.39275568181818  C 1.66541280864198 9.19152462121212  1.79996141975309 9.0139678030303  1.95543981481481 8.86008522727273  L 5.50752314814815 5.34446022727273  C 5.73476080246914 5.11955492424242  6.03674768518519 4.93016098484848  6.4134837962963 4.77627840909091  C 6.79021990740741 4.62239583333333  7.1400462962963 4.54545454545454  7.46296296296296 4.54545454545454  L 10.3333333333333 4.54545454545454  L 10.3333333333333 1.13636363636364  C 10.3333333333333 0.828598484848483  10.4469521604938 0.562263257575754  10.6741898148148 0.337357954545456  C 10.9014274691358 0.112452651515149  11.170524691358 0  11.4814814814815 0  L 29.8518518518519 0  C 30.1628086419753 0  30.4319058641975 0.112452651515149  30.6591435185185 0.337357954545456  Z " fill-rule="nonzero" fill="#000000" stroke="none" transform="matrix(1 0 0 1 68 171 )" />
  </g>
</svg>